<svg xmlns="http://www.w3.org/2000/svg" viewBox="0 0 512 512" role="img" aria-labelledby="title desc">
<title>Dosewise icon</title><desc>Clock face with a diagonal capsule.</desc>
<defs>
  <linearGradient id="bg" x1="64" y1="448" x2="448" y2="64" gradientUnits="userSpaceOnUse"><stop stop-color="#dff3eb"/><stop offset="1" stop-color="#f4fbf7"/></linearGradient>
  <linearGradient id="teal" x1="176" y1="402" x2="345" y2="242" gradientUnits="userSpaceOnUse"><stop stop-color="#006b5c"/><stop offset="1" stop-color="#36b295"/></linearGradient>
  <filter id="shadow" x="-20%" y="-20%" width="140%" height="140%"><feDropShadow dx="0" dy="12" stdDeviation="12" flood-color="#062d2a" flood-opacity=".22"/></filter>
</defs>
<rect x="24" y="24" width="464" height="464" rx="92" fill="url(#bg)"/>
<g filter="url(#shadow)">
  <circle cx="236" cy="236" r="148" fill="none" stroke="#00534a" stroke-width="24"/>
  <path d="M236 105v35M236 332v35M105 236h35M332 236h35M322 150l-24 24M150 322l24-24" stroke="#00534a" stroke-width="18" stroke-linecap="round"/>
  <path d="M236 236l-1-78M236 236l76 50" stroke="#00534a" stroke-width="20" stroke-linecap="round" stroke-linejoin="round"/>
  <g transform="translate(268 306) rotate(-43)">
    <rect x="-78" y="-54" width="240" height="108" rx="54" fill="#fff" stroke="#073d38" stroke-width="12"/>
    <path d="M42-54h66a54 54 0 0 1 0 108H42z" fill="url(#teal)"/>
    <path d="M42-54v108" stroke="#073d38" stroke-width="9"/>
    <path d="M-44 -37h78" stroke="#ffffff" stroke-width="12" stroke-linecap="round" opacity=".65"/>
  </g>
</g>
</svg>