<svg xmlns="http://www.w3.org/2000/svg" viewBox="0 0 512 512" role="img" aria-labelledby="title desc">
<title id="title">Dosewise icon</title>
<desc id="desc">A clock face partly covered by a green and white pill.</desc>
<defs>
  <radialGradient id="bg" cx="38%" cy="28%" r="74%">
    <stop offset="0" stop-color="#eefdf7"/>
    <stop offset="0.62" stop-color="#d8f3e8"/>
    <stop offset="1" stop-color="#c5eadc"/>
  </radialGradient>
  <linearGradient id="green" x1="256" y1="265" x2="393" y2="403" gradientUnits="userSpaceOnUse">
    <stop offset="0" stop-color="#00826e"/>
    <stop offset="1" stop-color="#004f46"/>
  </linearGradient>
  <linearGradient id="whitePill" x1="304" y1="205" x2="449" y2="348" gradientUnits="userSpaceOnUse">
    <stop offset="0" stop-color="#ffffff"/>
    <stop offset="0.52" stop-color="#f4f7f8"/>
    <stop offset="1" stop-color="#dfe8ea"/>
  </linearGradient>
  <filter id="shadow" x="-20%" y="-20%" width="140%" height="140%">
    <feDropShadow dx="0" dy="18" stdDeviation="18" flood-color="#052e2a" flood-opacity="0.27"/>
  </filter>
</defs>
<rect width="512" height="512" rx="92" fill="url(#bg)"/>
<g filter="url(#shadow)">
  <path d="M122 347a154 154 0 1 1 263-95" fill="none" stroke="#04594e" stroke-width="26" stroke-linecap="round"/>
  <path d="M256 118v31M154 221h-31M360 151l-18 25" stroke="#04594e" stroke-width="18" stroke-linecap="round"/>
  <path d="M256 256l-2-87" stroke="#04594e" stroke-width="18" stroke-linecap="round"/>
  <path d="M256 256l-70 51" stroke="#04594e" stroke-width="16" stroke-linecap="round"/>
  <circle cx="256" cy="256" r="13" fill="#04594e"/>
  <g transform="rotate(-45 337 325)">
    <rect x="218" y="247" width="238" height="126" rx="63" fill="url(#whitePill)" stroke="#053a35" stroke-width="10"/>
    <path d="M218 310h119v63H281c-35 0-63-28-63-63Z" fill="url(#green)"/>
    <path d="M337 247v126" stroke="#063f39" stroke-width="8" stroke-linecap="round" opacity="0.5"/>
    <path d="M250 272c15-10 35-15 60-16" stroke="#ffffff" stroke-width="9" stroke-linecap="round" opacity="0.28"/>
  </g>
</g>
</svg>
